<svg width="48" height="48" viewBox="0 0 48 48" fill="none" xmlns="http://www.w3.org/2000/svg">
<path d="M38 8H10C8.4087 8 6.88258 8.63214 5.75736 9.75736C4.63214 10.8826 4 12.4087 4 14V34C4 35.5913 4.63214 37.1174 5.75736 38.2426C6.88258 39.3679 8.4087 40 10 40H38C39.5913 40 41.1174 39.3679 42.2426 38.2426C43.3679 37.1174 44 35.5913 44 34V14C44 12.4087 43.3679 10.8826 42.2426 9.75736C41.1174 8.63214 39.5913 8 38 8ZM10 12H38C38.5304 12 39.0391 12.2107 39.4142 12.5858C39.7893 12.9609 40 13.4696 40 14L24 23.76L8 14C8 13.4696 8.21071 12.9609 8.58579 12.5858C8.96086 12.2107 9.46957 12 10 12ZM40 34C40 34.5304 39.7893 35.0391 39.4142 35.4142C39.0391 35.7893 38.5304 36 38 36H10C9.46957 36 8.96086 35.7893 8.58579 35.4142C8.21071 35.0391 8 34.5304 8 34V18.56L22.96 27.7C23.264 27.8755 23.6089 27.9679 23.96 27.9679C24.3111 27.9679 24.656 27.8755 24.96 27.7L40 18.56V34Z" fill="#1B1B1B"/>
</svg>
